<svg width="16" height="16" viewBox="0 0 16 16" fill="none" xmlns="http://www.w3.org/2000/svg">
<rect x="2.75" y="4.75" width="10.5" height="10.5" rx="2.25" stroke="white" stroke-width="1.5" stroke-linecap="round" stroke-linejoin="round"/>
<path fill-rule="evenodd" clip-rule="evenodd" d="M12.4876 5.66315C12.3153 3.3352 10.372 1.5 8 1.5C5.62803 1.5 3.68469 3.33519 3.51242 5.66315C3.19385 6.01741 3 6.48606 3 7V9.31779C2.36815 8.36749 2 7.22674 2 6C2 2.68629 4.68629 0 8 0C11.3137 0 14 2.68629 14 6C14 7.22674 13.6318 8.36749 13 9.31779V7C13 6.48606 12.8062 6.01741 12.4876 5.66315Z" fill="white"/>
<path d="M4.17999 13V7.39036H5.33266V9.56505H5.87825L6.80039 7.39036H8.05295L6.90028 10.0722L8.09906 13H6.83112L5.87825 10.6255H5.33266V13H4.17999ZM10.0479 13.0768C9.67393 13.0768 9.34606 13.0077 9.0643 12.8694C8.78253 12.7259 8.56224 12.5287 8.40343 12.2777C8.24974 12.0215 8.1729 11.7244 8.1729 11.3863V9.00409C8.1729 8.66085 8.24974 8.36372 8.40343 8.11269C8.56224 7.86167 8.78253 7.66699 9.0643 7.52868C9.34606 7.38523 9.67393 7.31351 10.0479 7.31351C10.427 7.31351 10.7549 7.38523 11.0315 7.52868C11.3133 7.66699 11.531 7.86167 11.6847 8.11269C11.8435 8.36372 11.9229 8.66085 11.9229 9.00409H10.7702C10.7702 8.77868 10.7062 8.60706 10.5781 8.48923C10.4552 8.3714 10.2784 8.31249 10.0479 8.31249C9.81737 8.31249 9.63807 8.3714 9.50999 8.48923C9.38704 8.60706 9.32557 8.77868 9.32557 9.00409V11.3863C9.32557 11.6066 9.38704 11.7782 9.50999 11.9011C9.63807 12.019 9.81737 12.0779 10.0479 12.0779C10.2784 12.0779 10.4552 12.019 10.5781 11.9011C10.7062 11.7782 10.7702 11.6066 10.7702 11.3863V10.9021H9.94032V9.92622H11.9229V11.3863C11.9229 11.7244 11.8435 12.0215 11.6847 12.2777C11.531 12.5287 11.3133 12.7259 11.0315 12.8694C10.7549 13.0077 10.427 13.0768 10.0479 13.0768Z" fill="white"/>
</svg>
